:SAMPLES-PER-SECOND 30
:FULLY-SPECIFIED
:DEGREES
113
root  39.7287 40.0402 -1.09502 -7.85965 -81.5209 20.9462
RightUpLeg  -26.433 -11.2128 -4.74695
RightLeg  9.58019 -7.97364 3.64604
RightFoot  5.43285 0.5894 -3.74171
RightToes  2.32829e-010 0 -3.6325e-017
Spine  41.0478 -1.90946 5.15997
Spine1  -4.96107 0.241807 -3.41723
HEad  -50.2877 -2.96972 -2.58326
LeftShoulder1  12.2479 -17.4786 -50.9503
LeftArm  -19.3442 5.24477 -19.0076
LeftForeArm  1.77252 -42.2813 -10.0647
LeftHand  -0.244104 0.0205437 5.32207
RightShoulder  7.22662 12.8288 38.1859
RightArm  -7.31777 -11.3453 28.146
RightForeArm  -43.2087 54.4762 18.5063
RightHand  -0.978855 0.748305 -18.5275
LeftUpLeg  -22.775 3.62487 -1.81723
LeftLeg  6.16436 12.1593 -4.04834
LeftFoot  3.52329 -0.60115 4.44206
LeftToes  1.42787e-010 7.94111e-011 2.6399e-011
114
root  39.8119 40.0255 -1.03792 -8.49904 -81.7208 21.43
RightUpLeg  -26.3693 -11.2277 -4.83868
RightLeg  9.49979 -7.74707 3.72754
RightFoot  5.5287 0.58163 -3.66349
RightToes  2.32829e-010 0 -3.6325e-017
Spine  41.0361 -1.86632 5.06631
Spine1  -4.78109 0.295153 -3.65559
HEad  -50.0553 -3.24215 -2.52813
LeftShoulder1  12.3712 -17.397 -51.6526
LeftArm  -19.4921 7.78558 -19.2059
LeftForeArm  3.55744 -43.7757 -10.4921
LeftHand  -0.244104 0.0205437 5.32207
RightShoulder  7.20076 12.7392 38.268
RightArm  -7.41998 -11.1838 28.6088
RightForeArm  -42.6546 55.1039 18.9193
RightHand  -0.993744 0.807435 -18.6296
LeftUpLeg  -22.7895 3.73852 -1.95041
LeftLeg  6.3424 12.2508 -3.96977
LeftFoot  3.38233 -0.600752 4.48852
LeftToes  1.42787e-010 7.94111e-011 2.6399e-011
115
root  39.8569 40.0264 -0.972937 -9.85199 -82.0205 22.5448
RightUpLeg  -26.1245 -11.1624 -4.98099
RightLeg  9.32779 -7.43263 3.75441
RightFoot  5.61139 0.545203 -3.3975
RightToes  2.32829e-010 0 -3.6325e-017
Spine  40.6696 -1.69084 4.95282
Spine1  -4.56817 0.484938 -3.91562
HEad  -49.5787 -3.6353 -2.5059
LeftShoulder1  12.4562 -17.3471 -52.1216
LeftArm  -19.6859 9.92442 -19.2729
LeftForeArm  5.30154 -45.0924 -10.8771
LeftHand  -0.244104 0.0205437 5.32207
RightShoulder  7.14634 12.6218 38.2543
RightArm  -7.65248 -10.6225 28.9339
RightForeArm  -41.9926 55.5071 19.1827
RightHand  -1.07071 1.23391 -18.7943
LeftUpLeg  -22.4893 3.61129 -1.96494
LeftLeg  6.22824 12.7372 -4.01818
LeftFoot  3.28314 -0.58477 4.39972
LeftToes  1.42787e-010 7.94111e-011 2.6399e-011
116
root  39.8747 40.0385 -0.898273 -10.8011 -82.1999 23.0876
RightUpLeg  -25.6326 -11.0871 -5.15396
RightLeg  9.15112 -7.31969 3.73419
RightFoot  5.69439 0.517306 -3.19092
RightToes  2.32829e-010 0 -3.6325e-017
Spine  40.0432 -1.57862 5.0224
Spine1  -4.40044 0.666857 -4.20993
HEad  -48.854 -3.9591 -2.42955
LeftShoulder1  12.4703 -17.2917 -52.3151
LeftArm  -19.8934 11.6766 -19.2473
LeftForeArm  6.73409 -46.2922 -11.2565
LeftHand  -0.244104 0.0205437 5.32207
RightShoulder  7.08603 12.4923 38.2375
RightArm  -7.97811 -9.89055 29.0794
RightForeArm  -41.7092 56.0014 19.5325
RightHand  -1.12317 1.52068 -18.9061
LeftUpLeg  -21.9766 3.48181 -1.96804
LeftLeg  6.11889 13.1029 -4.05069
LeftFoot  3.18584 -0.572145 4.33531
LeftToes  1.42787e-010 7.94111e-011 2.6399e-011
117
root  39.8717 40.0544 -0.803254 -10.5534 -82.0558 22.2308
RightUpLeg  -24.8199 -11.1049 -5.43087
RightLeg  9.01029 -7.46617 3.76679
RightFoot  5.68335 0.48545 -2.98078
RightToes  2.32829e-010 0 -3.6325e-017
Spine  39.165 -1.66371 5.36795
Spine1  -4.22598 0.699207 -4.46633
HEad  -47.8744 -4.18698 -2.24633
LeftShoulder1  12.4217 -17.1835 -52.3822
LeftArm  -20.2649 12.985 -19.0748
LeftForeArm  7.81596 -47.4492 -11.662
LeftHand  -0.244104 0.0205437 5.32207
RightShoulder  7.02021 12.3459 38.2324
RightArm  -8.40034 -9.21344 29.0594
RightForeArm  -41.1609 56.8543 20.1588
RightHand  -1.08613 1.34292 -18.7607
LeftUpLeg  -21.3057 3.43358 -2.05776
LeftLeg  6.13796 12.9838 -4.00141
LeftFoot  3.07532 -0.573013 4.38101
LeftToes  1.42787e-010 7.94111e-011 2.6399e-011
118
root  39.8363 40.0739 -0.692408 -10.3182 -81.7891 21.1488
RightUpLeg  -23.6644 -11.2042 -5.81368
RightLeg  8.91152 -7.53133 3.83266
RightFoot  5.49559 0.416298 -2.55619
RightToes  2.32829e-010 0 -3.6325e-017
Spine  38.057 -1.74597 5.66718
Spine1  -3.92995 0.673132 -4.57374
HEad  -46.5981 -4.38169 -1.97738
LeftShoulder1  12.315 -17.0161 -52.3567
LeftArm  -20.9014 13.8512 -18.8121
LeftForeArm  9.12901 -48.6398 -12.0858
LeftHand  -0.244104 0.0205437 5.32207
RightShoulder  6.93821 12.1832 38.1723
RightArm  -8.87763 -8.64226 29.007
RightForeArm  -40.1783 57.8989 20.959
RightHand  -1.03265 1.08411 -18.5464
LeftUpLeg  -20.3464 3.39251 -2.20931
LeftLeg  6.19633 12.695 -3.90949
LeftFoot  2.89145 -0.574579 4.4596
LeftToes  1.42787e-010 7.94111e-011 2.6399e-011
119
root  39.7548 40.1031 -0.579071 -11.4965 -81.7565 21.1664
RightUpLeg  -22.1829 -11.3671 -6.20437
RightLeg  8.89655 -7.25355 3.83525
RightFoot  5.20088 0.340466 -2.09609
RightToes  2.32829e-010 0 -3.6325e-017
Spine  36.8739 -1.59225 5.61312
Spine1  -3.63929 0.753945 -4.51323
HEad  -44.8829 -4.56362 -1.74737
LeftShoulder1  12.1905 -16.8468 -52.2615
LeftArm  -21.5478 14.5251 -18.4298
LeftForeArm  11.102 -49.9199 -12.5231
LeftHand  -0.244104 0.0205437 5.32207
RightShoulder  6.84548 12.0237 38.0354
RightArm  -9.2836 -8.2355 29.02
RightForeArm  -39.3972 58.7691 21.6698
RightHand  -1.02664 1.0849 -18.4384
LeftUpLeg  -18.9008 3.35511 -2.33276
LeftLeg  6.18949 12.699 -3.84579
LeftFoot  2.5629 -0.567903 4.52788
LeftToes  1.42787e-010 7.94111e-011 2.6399e-011
120
root  39.6359 40.1381 -0.464025 -13.4723 -81.9322 21.6984
RightUpLeg  -20.4708 -11.6258 -6.54042
RightLeg  9.04292 -6.69855 3.76008
RightFoot  4.87646 0.286343 -1.77452
RightToes  2.32829e-010 0 -3.6325e-017
Spine  35.6838 -1.28699 5.34415
Spine1  -3.59377 0.905476 -4.32968
HEad  -42.5784 -4.71056 -1.64962
LeftShoulder1  12.1267 -16.7491 -52.2397
LeftArm  -21.8464 15.2167 -17.8294
LeftForeArm  13.2124 -51.1612 -12.9555
LeftHand  -0.244104 0.0205437 5.32207
RightShoulder  6.74676 11.8678 37.848
RightArm  -9.51278 -8.1205 29.1145
RightForeArm  -39.1019 59.3525 22.1803
RightHand  -1.02697 1.12307 -18.3394
LeftUpLeg  -17.0718 3.47191 -2.40636
LeftLeg  6.21629 12.8137 -3.79592
LeftFoot  2.07569 -0.54904 4.55861
LeftToes  1.42787e-010 7.94111e-011 2.6399e-011
121
root  39.5117 40.1583 -0.343859 -14.5837 -82.0167 21.2847
RightUpLeg  -18.7945 -12.0201 -6.77576
RightLeg  9.49076 -5.90632 3.5955
RightFoot  4.44667 0.214005 -1.32175
RightToes  2.32829e-010 0 -3.6325e-017
Spine  34.3872 -1.05702 5.08184
Spine1  -3.73736 0.957094 -4.05994
HEad  -39.8136 -4.7557 -1.55129
LeftShoulder1  12.1053 -16.7318 -52.1936
LeftArm  -21.9316 15.7468 -17.3143
LeftForeArm  14.6518 -52.1503 -13.3393
LeftHand  -0.244104 0.0205437 5.32207
RightShoulder  6.6331 11.6748 37.6649
RightArm  -9.56256 -8.16298 29.3457
RightForeArm  -39.0324 59.7891 22.5821
RightHand  -1.00068 0.971379 -18.2915
LeftUpLeg  -15.338 3.97048 -2.49921
LeftLeg  6.62666 12.4079 -3.61272
LeftFoot  1.41841 -0.499411 4.38608
LeftToes  1.42787e-010 7.94111e-011 2.6399e-011
122
root  39.411 40.1438 -0.226748 -14.7418 -82.0577 20.003
RightUpLeg  -17.547 -12.7431 -6.72994
RightLeg  10.4829 -4.63768 3.20765
RightFoot  3.86623 0.125626 -0.743252
RightToes  2.32829e-010 0 -3.6325e-017
Spine  33.0343 -0.92301 4.68269
Spine1  -3.8084 0.888045 -3.80123
HEad  -37.0473 -4.52616 -1.21529
LeftShoulder1  11.9894 -16.7337 -51.6999
LeftArm  -22.278 15.8103 -17.4644
LeftForeArm  15.482 -52.9105 -13.6718
LeftHand  -0.244104 0.0205437 5.32207
RightShoulder  6.52389 11.4449 37.6096
RightArm  -9.43117 -7.90599 29.7807
RightForeArm  -39.0328 60.2027 22.9766
RightHand  -0.968426 0.725198 -18.401
LeftUpLeg  -14.0784 5.07431 -2.65703
LeftLeg  7.70805 11.3064 -3.17488
LeftFoot  0.543004 -0.415144 3.9534
LeftToes  1.42787e-010 7.94111e-011 2.6399e-011
